<?xml version="1.0" standalone="no"?>
<!DOCTYPE svg PUBLIC "-//W3C//DTD SVG 20010904//EN"
 "http://www.w3.org/TR/2001/REC-SVG-20010904/DTD/svg10.dtd">
<svg version="1.0" xmlns="http://www.w3.org/2000/svg"
 width="700.000000pt" height="700.000000pt" viewBox="0 0 700.000000 700.000000"
 preserveAspectRatio="xMidYMid meet">
<metadata>
Created by potrace 1.11, written by Peter Selinger 2001-2013
</metadata>
<g transform="translate(0.000000,700.000000) scale(0.100000,-0.100000)"
fill="#000000" stroke="none">
<path d="M3285 6994 c-144 -12 -344 -38 -455 -60 -1397 -275 -2489 -1367
-2764 -2764 -46 -231 -60 -395 -60 -670 0 -275 14 -439 60 -670 275 -1397
1367 -2489 2764 -2764 231 -46 395 -60 670 -60 275 0 439 14 670 60 1397 275
2489 1367 2764 2764 46 231 60 395 60 670 0 505 -85 926 -279 1379 -492 1147
-1562 1947 -2805 2096 -129 15 -520 27 -625 19z m612 -1880 c20 -15 33 -34 33
-47 0 -21 -684 -1220 -718 -1259 -20 -24 -59 -23 -99 2 -41 25 -50 58 -27 101
38 76 687 1195 702 1212 22 25 70 21 109 -9z m-1370 -255 c24 -15 33 -27 31
-42 -2 -15 -88 -81 -293 -223 -159 -111 -290 -206 -292 -210 -1 -5 130 -101
292 -213 188 -130 295 -211 295 -221 0 -32 -68 -75 -104 -66 -13 3 -157 99
-322 213 -165 115 -319 221 -342 237 -31 21 -42 35 -40 50 4 30 672 495 712
495 16 1 44 -9 63 -20z m2388 -217 c237 -166 341 -244 343 -258 2 -17 -59 -64
-340 -259 -189 -131 -354 -240 -368 -242 -31 -5 -94 35 -98 62 -2 16 58 62
293 225 162 113 294 209 292 214 -2 4 -133 99 -292 210 -206 143 -291 207
-293 222 -4 27 50 64 93 63 23 0 114 -59 370 -237z m-3233 -1759 c24 -9 138
-55 253 -103 636 -263 1093 -370 1584 -370 471 0 933 108 1506 350 336 142
365 153 365 135 0 -19 -38 -89 -87 -159 -212 -304 -521 -605 -840 -816 -103
-69 -349 -197 -358 -188 -3 3 0 39 6 79 15 98 7 272 -15 324 -42 98 -109 130
-271 129 -97 -1 -323 -1 -680 -1 -93 1 -116 -3 -152 -21 -51 -27 -81 -67 -99
-135 -16 -60 -18 -212 -4 -307 5 -35 7 -66 5 -69 -3 -2 -61 24 -130 58 -329
164 -668 445 -946 786 -112 137 -209 285 -209 320 0 10 30 5 72 -12z"/>
</g>
</svg>
